<?xml version="1.0" encoding="utf-8"?><svg xmlns="http://www.w3.org/2000/svg" xmlns:xlink="http://www.w3.org/1999/xlink"><defs><svg viewBox="0, 0, 30.125, 30.638" id="addresses"><path d="M2.628 29.543h21.703c.704 0 1.277-.572 1.277-1.277V2.734c0-.704-.573-1.276-1.277-1.276H2.628v28.085zm21.703 1.276H1.992a.64.64 0 0 1-.642-.638V.819a.64.64 0 0 1 .64-.638h22.34a2.556 2.556 0 0 1 2.553 2.553v25.532a2.554 2.554 0 0 1-2.553 2.553z"/><path d="M.312 8.681h3.626M.312 13.4h3.626M.312 17.65h3.626M.312 22.243h3.626M26.125 5.837h2.219v3.344h-2.219V5.837zM26.125 11.728h2.219v3.344h-2.219v-3.344zM26.125 17.587h2.219v3.344h-2.219v-3.344z" stroke="#000" fill="none"/></svg><svg viewBox="0 0 12 6" id="arrow-down"><path fill="#656A6E" fill-rule="evenodd" d="M6 6L0 0h12z"/></svg><svg viewBox="0 0 5 10" id="arrow-left"><path fill="#656A6E" fill-rule="evenodd" d="M0 5l5 5V0z"/></svg><svg viewBox="0 0 55 28" id="back-to-top-button"><path fill="#032366" fill-rule="evenodd" d="M0 26.242L24.83 1.13a3.718 3.718 0 0 1 5.34 0L55 26.242 53.262 28 28.432 2.888c-.497-.502-1.367-.502-1.863 0L1.739 28 0 26.242z"/></svg><svg viewBox="0 0 16 19" id="bag-empty"><path d="M8 .789c1.867 0 3.457 1.313 4.063 3.153H3.937C4.543 2.102 6.133.789 8 .789m7.549 3.153A.46.46 0 0 1 16 4.41v14.122a.46.46 0 0 1-.452.468H.451A.46.46 0 0 1 0 18.532V4.41a.46.46 0 0 1 .451-.468h2.736C3.821 1.66 5.736 0 8 0s4.179 1.66 4.813 3.942h2.736zM1 5.494v12.012a.5.5 0 0 0 .498.494h13.004a.494.494 0 0 0 .498-.494V5.494A.499.499 0 0 0 14.502 5H1.498A.494.494 0 0 0 1 5.494z"/></svg><svg viewBox="0 0 16 19" id="bag-full"><path d="M8 .789c1.867 0 3.457 1.313 4.063 3.153H3.937C4.543 2.102 6.133.789 8 .789m7.549 3.153h-2.736C12.179 1.66 10.264 0 8 0S3.821 1.66 3.187 3.942H.451A.46.46 0 0 0 0 4.41v14.122A.46.46 0 0 0 .451 19h15.097a.46.46 0 0 0 .452-.468V4.41a.46.46 0 0 0-.451-.468"/></svg><svg viewBox="0 0 31 22" id="card"><path fill-rule="evenodd" d="M29 19.857H1.864a.496.496 0 0 1-.496-.496V7.421h28.128v11.94c0 .274-.22.496-.494.496M1.863 1.967h27.138c.273 0 .496.221.496.495v3.594H1.367V2.462c0-.274.222-.496.496-.496M29.001.6H1.863A1.863 1.863 0 0 0 .001 2.462v16.9c0 1.028.833 1.862 1.862 1.862h27.138a1.862 1.862 0 0 0 1.859-1.861v-16.9A1.862 1.862 0 0 0 29 .6"/><path d="M2.938 9.625h7.75" stroke="#000" fill="none"/></svg><svg viewBox="0 0 22 20" id="check-mark"><title>1EEB9314-F4B7-4F75-A254-D0A50CF8304A</title><path d="M2.538 7.941L0 11.307l10.782 8.129L22 2.31 18.474 0l-8.75 13.359z" fill-rule="nonzero" fill="#2E3133"/></svg><svg viewBox="0 0 16 16" id="checkmark"><defs><path id="aia" d="M0 0h16v16H0z"/></defs><g fill="none" fill-rule="evenodd"><use fill="#F1F4F6" xlink:href="#aia"/><path stroke="#D0D4D6" d="M.5.5h15v15H.5z"/><path fill="#656A6E" fill-rule="nonzero" d="M3.602 7.22L2.398 8.817l5.116 3.857 5.323-8.126-1.674-1.096-4.152 6.339z"/></g></svg><svg viewBox="0 0 16 16" id="checkmark-empty"><title>208312F0-B938-46F1-AFBF-698E69F7B405</title><defs><path id="aja" d="M30 676h16v16H30z"/></defs><g transform="translate(-30 -676)" fill="none" fill-rule="evenodd"><use fill="#FFF" xlink:href="#aja"/><path stroke="#D5D5D5" d="M30.5 676.5h15v15h-15z"/></g></svg><svg viewBox="0 0 10 10" id="close-refinements"><g fill="#656A6E" fill-rule="evenodd"><path d="M9.163 10a.834.834 0 0 1-.592-.245L.245 1.429A.837.837 0 1 1 1.43.245l8.326 8.326A.837.837 0 0 1 9.163 10"/><path d="M.837 10a.837.837 0 0 1-.592-1.429L8.571.245A.837.837 0 1 1 9.755 1.43L1.429 9.755A.833.833 0 0 1 .837 10"/></g></svg><svg viewBox="0 0 17 13" id="email-default"><path fill="#857650" fill-rule="evenodd" d="M0 13h17V0H0v13zm1-9.835V.999h15v2.166L8.5 8 1 3.165zM16 4.25V12H1V4.25l7.5 4.755L16 4.25z"/></svg><svg viewBox="0 0 34 34" id="facebook"><path d="M32.994 17c0-8.834-7.16-15.994-15.994-15.994S1.006 8.166 1.006 17c0 8.833 7.16 15.994 15.994 15.994 8.833 0 15.994-7.16 15.994-15.994zM34 17c0 9.389-7.611 17-17 17S0 26.389 0 17C0 7.61 7.611 0 17 0s17 7.61 17 17z"/><path d="M17.544 24v-6.386h2.064l.31-2.49h-2.374v-1.588c0-.721.193-1.212 1.188-1.212L20 12.323v-2.226c-.22-.03-.973-.097-1.848-.097-1.83 0-3.082 1.16-3.082 3.29v1.835H13v2.489h2.07V24h2.474z"/></svg><svg viewBox="0 0 7 14" id="facebook-wishlist"><title>E90C1A72-4E07-4177-959B-7B96D50FE28F</title><path d="M4.544 14V7.614h2.064l.31-2.49H4.543V3.537c0-.721.193-1.212 1.188-1.212L7 2.323V.097C6.78.067 6.027 0 5.152 0 3.322 0 2.07 1.16 2.07 3.29v1.835H0v2.489h2.07V14h2.474z" fill="#857650" fill-rule="evenodd"/></svg><svg viewBox="0 0 28 28" id="friend-referer"><path fill-rule="evenodd" d="M14 26.542C7.085 26.542 1.458 20.915 1.458 14S7.085 1.458 14 1.458 26.542 7.085 26.542 14 20.915 26.542 14 26.542M14 0C6.28 0 0 6.28 0 14s6.28 14 14 14 14-6.28 14-14S21.72 0 14 0m7.298 13.27h-6.569V6.703a.73.73 0 1 0-1.458 0v6.569H6.702a.73.73 0 1 0 0 1.458h6.569v6.569a.73.73 0 1 0 1.458 0V14.73h6.569a.73.73 0 1 0 0-1.458"/></svg><svg viewBox="0 0 14 14" id="grid-view"><path d="M0 0h6v6H0zm8 0h6v6H8zM0 8h6v6H0zm8 0h6v6H8z" fill-rule="evenodd"/></svg><svg viewBox="0 0 34 34" id="instagram"><path d="M32.994 17c0-8.834-7.16-15.994-15.994-15.994S1.006 8.166 1.006 17c0 8.833 7.16 15.994 15.994 15.994 8.833 0 15.994-7.16 15.994-15.994zM34 17c0 9.389-7.611 17-17 17S0 26.389 0 17C0 7.61 7.611 0 17 0s17 7.61 17 17z"/><path d="M14.114 10.043c-.746.033-1.254.152-1.7.324-.46.18-.85.42-1.239.808-.39.389-.63.78-.808 1.24-.173.446-.29.954-.324 1.7C10.008 14.86 10 15.1 10 17c0 1.901.008 2.14.043 2.886.033.745.15 1.255.324 1.7.178.46.418.85.808 1.24.389.389.778.628 1.24.807.446.173.953.291 1.7.325.746.034.984.042 2.886.042 1.9 0 2.139-.008 2.886-.042.745-.034 1.253-.152 1.7-.325.46-.18.85-.418 1.24-.808.388-.389.628-.78.807-1.24.172-.444.291-.954.325-1.699.033-.747.041-.985.041-2.886 0-1.901-.008-2.14-.041-2.887-.034-.745-.153-1.253-.325-1.7-.18-.458-.42-.85-.808-1.239a3.438 3.438 0 0 0-1.24-.808c-.446-.172-.954-.29-1.699-.324-.746-.034-.986-.043-2.886-.043-1.902 0-2.14.008-2.887.043m.058 12.657c-.683-.032-1.054-.146-1.3-.242a2.174 2.174 0 0 1-.805-.523 2.16 2.16 0 0 1-.524-.806c-.096-.245-.21-.617-.241-1.3-.034-.737-.04-.959-.04-2.828 0-1.87.006-2.09.04-2.829.03-.683.145-1.053.241-1.3.127-.327.28-.56.524-.805a2.17 2.17 0 0 1 .805-.525c.246-.096.617-.21 1.3-.24.737-.034.96-.04 2.829-.04 1.869 0 2.09.007 2.829.04.682.03 1.052.145 1.3.24.326.128.56.28.805.525.245.244.396.478.524.805.096.246.21.617.24 1.3.034.738.04.96.04 2.829 0 1.869-.006 2.09-.04 2.829-.03.682-.145 1.054-.24 1.3-.128.326-.28.56-.524.805a2.165 2.165 0 0 1-.806.523c-.246.096-.617.21-1.3.242-.737.033-.959.04-2.828.04-1.87 0-2.092-.007-2.829-.04m5.725-9.437a.84.84 0 1 0 1.682 0 .84.84 0 0 0-1.682 0M13.407 17a3.594 3.594 0 1 0 7.19 0 3.594 3.594 0 0 0-7.19 0m1.26 0a2.334 2.334 0 1 1 4.668 0 2.334 2.334 0 0 1-4.668 0"/></svg><svg viewBox="0 0 6 12" id="left-arrow"><path fill="#FFF" d="M6 6l-6 6V0z"/></svg><svg viewBox="0 0 14 14" id="list-view"><path d="M0 0h14v2H0zm0 6h14v2H0zm0 6h14v2H0z" fill-rule="evenodd"/></svg><svg viewBox="0 0 12 11" id="livechat-icon"><path fill="#FFF" fill-rule="evenodd" d="M10.907 0H.535A.548.548 0 0 0 0 .55v6.639a.523.523 0 0 0 .535.521h.873v1.986c0 .677.364.799.798.278L4.094 7.71h6.813a.523.523 0 0 0 .535-.521V.549A.548.548 0 0 0 10.907 0"/></svg><svg viewBox="0 0 180 22" id="logo"><path d="M167.941 4.785V21.67H180v-2.86h-9.261v-4.86h4.828v-2.861h-4.828V7.646h8.989V4.785H167.94zm-15.25 0V21.67h12.06v-2.86h-9.26V4.785h-2.8zm-14.224 9.975l2.427-6.178 2.451 6.178h-4.878zm.892-9.975l-6.711 16.885h2.998l1.607-4.05h7.306l1.609 4.05h2.996L142.43 4.785h-3.071zm-19.186 0v2.86h4.63V21.67h2.799V7.646h4.63V4.785h-12.06zm-3.562 2.201c-1.462-1.62-3.542-2.53-5.77-2.53-3.468 0-5.82 1.975-5.82 4.937 0 1.671.743 2.963 2.13 3.696.742.405 1.437.658 3.96 1.418 2.106.632 2.477.784 2.8.96.494.28.718.635.718 1.167 0 1.392-1.585 2.404-3.715 2.404a6.187 6.187 0 0 1-2.326-.48c-.621-.305-.916-.508-1.857-1.444l-.199-.202-2.205 1.797c1.413 2.05 3.888 3.291 6.514 3.291 3.813 0 6.71-2.279 6.71-5.265 0-1.14-.446-2.33-1.14-2.988-.817-.785-2.13-1.391-4.58-2.076-2.08-.607-2.625-.76-3.07-.988-.644-.329-.892-.682-.892-1.366 0-1.19 1.089-1.924 2.848-1.924 1.437 0 2.697.53 3.887 1.62l2.007-2.027zm-22.255.432c2.378 0 3.864 2.253 3.864 5.798 0 3.62-1.486 5.822-3.938 5.822-2.451 0-3.962-2.202-3.962-5.772 0-3.696 1.487-5.848 4.036-5.848zm.026-2.962c-1.908 0-3.64.76-4.904 2.152-1.338 1.468-2.055 3.771-2.055 6.658 0 2.784.694 5.038 1.98 6.531C90.644 21.165 92.45 22 94.283 22c1.808 0 3.615-.81 4.829-2.203 1.312-1.493 2.006-3.772 2.006-6.683 0-2.532-.645-4.76-1.759-6.152-1.287-1.57-3.12-2.506-4.976-2.506zm-20.714 7.696V7.646h4.581c1.114 0 1.287.025 1.758.304a2.298 2.298 0 0 1 1.163 1.974c0 .785-.42 1.519-1.089 1.9-.421.252-.792.328-1.559.328h-4.854zM70.87 4.785V21.67h2.798v-6.657h4.085c1.932 0 2.154-.025 2.8-.228 2.203-.71 3.515-2.532 3.515-4.836 0-2.176-1.214-3.974-3.244-4.785-.917-.38-.966-.38-3.49-.38H70.87zM59.647 7.418c2.377 0 3.863 2.253 3.863 5.798 0 3.62-1.486 5.822-3.937 5.822-2.45 0-3.96-2.202-3.96-5.772 0-3.696 1.484-5.848 4.034-5.848zm.025-2.962c-1.906 0-3.64.76-4.903 2.152-1.336 1.468-2.053 3.771-2.053 6.658 0 2.784.692 5.038 1.98 6.531C55.933 21.165 57.741 22 59.573 22c1.808 0 3.616-.81 4.828-2.203 1.313-1.493 2.007-3.772 2.007-6.683 0-2.532-.644-4.76-1.759-6.152-1.286-1.57-3.118-2.506-4.977-2.506zm-20.913 7.67v-4.48h4.433c.792 0 1.214.05 1.559.203.743.329 1.312 1.214 1.312 2.05 0 .734-.396 1.468-1.014 1.848-.471.278-.917.38-1.907.38H38.76zm-2.799-7.34V21.67h2.798v-6.682h4.433l2.847 6.682h3.12l-3.12-7.24c1.784-.784 2.872-2.506 2.872-4.53 0-1.924-1.065-3.672-2.798-4.584-.891-.455-1.312-.531-3.367-.531H35.96zM29.627 0h-3.144l-1.834 3.367h2.625L29.627 0zm-9.583 4.785V21.67h12.058v-2.86h-9.26v-4.86h4.829v-2.861h-4.828V7.646h8.987V4.785H20.044zM5.82 14.76l2.427-6.178 2.45 6.178H5.82zm.89-9.975L0 21.67h2.995l1.61-4.05h7.305l1.61 4.05h2.995L9.779 4.785H6.71z"/></svg><svg viewBox="0 0 13 13" id="menu-close-button"><path fill-rule="evenodd" d="M12.857.308a.412.412 0 0 0-.59 0L6.576 5.921.733.125a.41.41 0 0 0-.59 0 .4.4 0 0 0 0 .583l5.843 5.796L.126 12.3a.4.4 0 0 0 0 .583A.408.408 0 0 0 .43 13a.408.408 0 0 0 .304-.117l5.86-5.796 5.674 5.613a.408.408 0 0 0 .304.117.408.408 0 0 0 .303-.117.4.4 0 0 0 0-.583L7.182 6.504 12.857.891c.151-.166.151-.433 0-.583"/></svg><svg viewBox="0 0 17 7" id="mini-cart-arrow"><title>Triangle 2</title><path d="M8.5 0L17 7H0z" fill="#FFF" fill-rule="evenodd"/></svg><svg viewBox="0 0 8 14" id="mobile-grid-view-one"><path fill-rule="evenodd" d="M0 0h8v14H0z"/></svg><svg viewBox="0 0 18 14" id="mobile-grid-view-two"><path d="M0 0h8v14H0V0zM10 0h8v14h-8V0z"/></svg><svg viewBox="0 0 21 13" id="mobile-menu"><path d="M0 .5C0 .224.222 0 .498 0h20.004c.275 0 .498.232.498.5 0 .276-.222.5-.498.5H.498A.504.504 0 0 1 0 .5zm0 6c0-.276.222-.5.498-.5h20.004c.275 0 .498.232.498.5 0 .276-.222.5-.498.5H.498A.504.504 0 0 1 0 6.5zm0 6c0-.276.222-.5.498-.5h20.004c.275 0 .498.232.498.5 0 .276-.222.5-.498.5H.498A.504.504 0 0 1 0 12.5z"/></svg><svg viewBox="0, 0, 30, 35.75" id="order-history"><path d="M26.493 33.25H2.508A3.01 3.01 0 0 1-.5 30.242V4.758A3.01 3.01 0 0 1 2.508 1.75H6.25v1.5H2.508A1.51 1.51 0 0 0 1 4.758v25.485a1.51 1.51 0 0 0 1.508 1.507h23.985A1.51 1.51 0 0 0 28 30.242V4.758a1.51 1.51 0 0 0-1.507-1.508H22.75v-1.5h3.743A3.011 3.011 0 0 1 29.5 4.758v25.485a3.01 3.01 0 0 1-3.007 3.007"/><path d="M20.5.5h.75-.75zM10-1a.752.752 0 0 0-.75.75V.5c0 .826-.672 1.5-1.5 1.5a.752.752 0 0 0-.75.75v1.5c0 .412.337.75.75.75h13.498A.754.754 0 0 0 22 4.25v-1.5a.754.754 0 0 0-.752-.75A1.5 1.5 0 0 1 19.75.5v-.75a.751.751 0 0 0-.752-.75H10zm11.248 7.5H7.75C6.51 6.5 5.5 5.49 5.5 4.25v-1.5C5.5 1.51 6.51.5 7.75.5v-.75C7.75-1.49 8.76-2.5 10-2.5h8.998A2.254 2.254 0 0 1 21.25-.25V.5c1.24 0 2.25 1.01 2.25 2.25v1.5c0 1.24-1.011 2.25-2.252 2.25zM12.472 21.73l-3.529-3.529 1.06-1.062 2.938 2.937 5.945-7.432 1.172.938-6.468 8.085z"/></svg><svg viewBox="0 0 58 24" id="pdp-fb-like"><rect width="58" height="24" fill="#857650" rx="3.6"/><path fill="#FFF" d="M24.888 6.928h1.985v7.793h4.705v1.708h-6.69v-9.5zm9.803 1.637h-1.863V6.87h1.863v1.695zm-1.863.838h1.863v7.026h-1.863V9.403zm3.623-2.443h1.804v5.118l2.288-2.643h2.276l-2.456 2.688 2.552 4.306h-2.217l-1.682-3.004-.76.793v2.21H36.45V6.96zm9.142 4.17c-.234.267-.381.628-.441 1.083h2.855c-.03-.485-.177-.854-.441-1.105a1.371 1.371 0 0 0-.983-.377c-.426 0-.755.133-.99.4zm2.569-1.585c.468.22.855.565 1.16 1.038.275.416.453.9.535 1.45.047.322.067.786.058 1.392h-4.808c.026.705.247 1.199.664 1.482.253.177.558.265.915.265.378 0 .685-.108.922-.323a1.53 1.53 0 0 0 .341-.483h1.876c-.048.417-.265.84-.651 1.27-.602.683-1.444 1.025-2.527 1.025a3.563 3.563 0 0 1-2.365-.864c-.683-.576-1.025-1.513-1.025-2.81 0-1.216.308-2.149.925-2.797.616-.65 1.417-.974 2.4-.974.585 0 1.111.11 1.58.329zm-29.944.421c.036-.003.073-.004.11-.004.785 0 1.422.563 1.422 1.257 0 .408-.22.77-.56 1 .337.186.56.513.56.886 0 .456-.334.844-.802.988.35.183.583.516.583.897 0 .47-.353.866-.841 1 .245.152.404.399.404.677 0 .431-.383.786-.876.833v.005h-6.094a1.14 1.14 0 0 1-1.128-1.146v-5.546c0-.15.04-.292.109-.415-.03-.04-.036-.081-.014-.122.243-.43 2.627-2.514 2.736-3.247.11-.734.405-1.886.891-1.886h.147c.643 0 1.219.498 1.256 1.111 0 0 .346 2.437-.967 3.708h3.064v.004zm-11.394 1.98a1.14 1.14 0 0 1 1.14-1.146h.783c.63 0 1.14.518 1.14 1.146v5.251a1.14 1.14 0 0 1-1.14 1.146h-.782c-.63 0-1.141-.519-1.141-1.146v-5.251z"/></svg><svg viewBox="0 0 16 16" id="pdp-ig"><path d="M5.114 1.043c-.746.033-1.254.152-1.7.324-.46.18-.85.42-1.239.808-.39.389-.63.78-.808 1.24-.173.446-.29.954-.324 1.7C1.008 5.86 1 6.1 1 8c0 1.901.008 2.14.043 2.886.033.745.15 1.255.324 1.7.178.46.418.85.808 1.24.389.389.778.628 1.24.807.446.173.953.291 1.7.325.746.034.984.042 2.886.042 1.9 0 2.139-.008 2.886-.042.745-.034 1.253-.152 1.7-.325.46-.18.85-.418 1.24-.808.388-.389.628-.78.807-1.24.172-.444.291-.954.325-1.699.033-.747.041-.985.041-2.886 0-1.901-.008-2.14-.041-2.887-.034-.745-.153-1.253-.325-1.7-.18-.458-.42-.85-.808-1.239a3.438 3.438 0 0 0-1.24-.808c-.446-.172-.954-.29-1.699-.324C10.141 1.009 9.901 1 8.001 1c-1.902 0-2.14.008-2.887.043M5.172 13.7c-.683-.032-1.054-.146-1.3-.242a2.174 2.174 0 0 1-.805-.523 2.16 2.16 0 0 1-.524-.806c-.096-.245-.21-.617-.241-1.3-.034-.737-.04-.959-.04-2.828 0-1.87.006-2.09.04-2.829.03-.683.145-1.053.241-1.3.127-.327.28-.56.524-.805a2.17 2.17 0 0 1 .805-.525c.246-.096.617-.21 1.3-.24.737-.034.96-.04 2.829-.04 1.869 0 2.09.007 2.829.04.682.03 1.052.145 1.3.24.326.128.56.28.805.525.245.244.396.478.524.805.096.246.21.617.24 1.3.034.738.04.96.04 2.829 0 1.869-.006 2.09-.04 2.829-.03.682-.145 1.054-.24 1.3-.128.326-.28.56-.524.805a2.165 2.165 0 0 1-.806.523c-.246.096-.617.21-1.3.242-.737.033-.959.04-2.828.04-1.87 0-2.092-.007-2.829-.04m5.725-9.437a.84.84 0 1 0 1.682 0 .84.84 0 0 0-1.682 0M4.407 8a3.594 3.594 0 1 0 7.19 0 3.594 3.594 0 0 0-7.19 0m1.26 0a2.334 2.334 0 1 1 4.668 0 2.334 2.334 0 0 1-4.668 0"/></svg><svg viewBox="0 0 16 16" id="pdp-pintrest"><path d="M6.793 1.047c-2.35.26-4.691 2.141-4.788 4.83-.06 1.642.41 2.874 1.989 3.22.684-1.196-.221-1.461-.362-2.326-.579-3.546 4.13-5.963 6.594-3.489 1.704 1.715.582 6.988-2.167 6.44-2.635-.523 1.289-4.72-.814-5.545-1.709-.67-2.617 2.049-1.807 3.4C4.963 9.899 3.94 12.087 4.355 15c1.342-.965 1.796-2.813 2.167-4.74.675.405 1.036.828 1.896.894 3.176.243 4.95-3.14 4.517-6.26-.384-2.768-3.173-4.176-6.142-3.847"/></svg><svg viewBox="0 0 16 16" id="pdp-snapchat"><path d="M8.135 1H8.1l-.24.003c-.312 0-.934.046-1.601.36-.382.18-.726.421-1.021.72-.353.356-.64.795-.854 1.304-.312.746-.238 2.003-.178 3.013v.002l.019.33a.52.52 0 0 1-.23.047c-.176 0-.386-.06-.624-.178a.53.53 0 0 0-.237-.052.804.804 0 0 0-.42.125.614.614 0 0 0-.295.403c-.02.106-.018.314.199.524.12.116.295.224.521.319.06.025.13.048.205.074.26.087.652.22.754.476.052.13.03.3-.066.507l-.008.017c-.023.06-.246.597-.704 1.163-.26.323-.546.592-.85.801a3.02 3.02 0 0 1-1.195.496.345.345 0 0 0-.274.364.484.484 0 0 0 .033.152c.068.167.223.308.475.433.308.152.768.28 1.369.38.03.062.062.216.083.321.023.113.047.228.08.35.037.133.132.292.376.292.093 0 .2-.022.322-.047.18-.038.427-.09.735-.09.17 0 .347.017.525.048.343.06.639.283.981.54.5.377 1.068.803 1.934.803.024 0 .047 0 .07-.003.03.002.065.003.102.003.867 0 1.433-.426 1.934-.803.343-.257.638-.48.981-.54.178-.031.355-.047.525-.047.294 0 .527.04.735.083.135.028.24.042.322.042h.016c.178 0 .31-.104.36-.287.033-.12.056-.232.08-.346.02-.1.053-.258.083-.32.6-.1 1.061-.228 1.37-.38.25-.124.406-.265.473-.431a.47.47 0 0 0 .034-.154.344.344 0 0 0-.274-.363c-1.871-.328-2.715-2.374-2.75-2.46a.257.257 0 0 0-.007-.017c-.096-.207-.118-.378-.066-.508.102-.256.494-.388.754-.476.075-.025.146-.049.205-.073.255-.108.438-.224.558-.356a.583.583 0 0 0 .17-.408c-.004-.239-.176-.451-.45-.555a.762.762 0 0 0-.304-.062.647.647 0 0 0-.283.061 1.523 1.523 0 0 1-.584.178.502.502 0 0 1-.193-.046c.005-.093.01-.189.017-.289l.002-.042c.06-1.01.135-2.269-.178-3.015a4.082 4.082 0 0 0-.857-1.308 3.566 3.566 0 0 0-1.024-.72A3.865 3.865 0 0 0 8.135 1"/></svg><svg viewBox="0 0 16 16" id="pdp-twitter"><path d="M10.355 2.003V2h.656l.24.051c.16.032.305.075.435.129a3.277 3.277 0 0 1 .71.404c.1.073.187.15.266.231.078.083.199.103.363.063.164-.039.34-.094.53-.165a7.11 7.11 0 0 0 .562-.24c.184-.089.296-.145.337-.17a.976.976 0 0 0 .064-.04l.002-.004.013-.005.013-.007.012-.008.013-.007.001-.004.004-.001.005-.003.003-.004.013-.004.011-.003-.003.02-.003.02-.005.02-.007.02-.006.013-.008.014-.005.02a.41.41 0 0 0-.013.053c-.005.022-.044.11-.12.266-.076.155-.17.313-.284.473-.114.16-.215.28-.306.362a2.51 2.51 0 0 0-.18.174.549.549 0 0 1-.107.092l-.063.045-.014.006-.011.007-.003.004-.004.003-.003.002-.003.004-.013.007-.012.007-.003.004-.004.001-.004.003-.002.005-.003.004-.004.003-.003.003-.003.004h.064l.354-.08a5.96 5.96 0 0 0 .674-.194l.341-.12.038-.013.018-.007.014-.007.012-.006.012-.007.013-.007.026-.004.025-.002v.026l-.006.003-.007.004-.002.004-.004.003-.004.003-.002.004-.003.004-.004.002-.004.003-.002.004-.003.004-.004.003-.006.013-.006.014-.004.002-.16.226a1.763 1.763 0 0 1-.171.227c-.008.003-.02.016-.036.04a3.785 3.785 0 0 1-.267.297 6.524 6.524 0 0 1-.481.462.644.644 0 0 0-.24.5c-.003.198-.013.42-.03.67a8.98 8.98 0 0 1-.31 1.784 9.048 9.048 0 0 1-1.204 2.696 7.608 7.608 0 0 1-.88 1.11c-.2.21-.31.325-.328.347-.02.019-.102.091-.248.219a8.85 8.85 0 0 1-.467.38c-.166.126-.319.23-.457.315a13.6 13.6 0 0 1-.502.289c-.196.109-.407.21-.634.305a9.99 9.99 0 0 1-.72.259c-.252.08-.496.142-.732.187a9.834 9.834 0 0 1-.802.112l-.448.047V14h-.82v-.007l-.107-.006-.177-.014a15.058 15.058 0 0 1-.525-.074 7.165 7.165 0 0 1-.712-.133 8.778 8.778 0 0 1-.77-.252 7.204 7.204 0 0 1-.875-.377 61.27 61.27 0 0 1-.455-.24 3.216 3.216 0 0 1-.204-.123l-.113-.072-.003-.004-.005-.003-.004-.003-.002-.004-.012-.007-.013-.006-.002-.004-.004-.003-.004-.003-.002-.004-.003-.004-.004-.002H1v-.027l.013.002.012.004.056.007a9.3 9.3 0 0 0 .311.02 5.51 5.51 0 0 0 1.116-.06 6.3 6.3 0 0 0 1.443-.428c.226-.105.385-.184.48-.235.094-.05.238-.144.432-.282l.29-.207.002-.004.004-.003.004-.003.003-.004.002-.004.004-.001.004-.003.002-.004.013-.004.013-.002.002-.015.004-.012.004-.003.003-.004-.102-.007c-.066-.004-.133-.01-.196-.013a2.705 2.705 0 0 1-.732-.22 3.467 3.467 0 0 1-.454-.253 2.39 2.39 0 0 1-.32-.244 5.864 5.864 0 0 1-.252-.271 2.667 2.667 0 0 1-.267-.364 3.165 3.165 0 0 1-.218-.43l-.104-.243-.007-.02-.006-.019-.004-.015-.002-.012.019.003.019.003.139.021c.093.012.238.018.435.012a2.822 2.822 0 0 0 .548-.052l.026-.007.032-.007.032-.006.002-.004.004-.003.004-.003.002-.004-.025-.006-.026-.007-.025-.007-.026-.007-.024-.006a1.663 1.663 0 0 1-.089-.027 4.733 4.733 0 0 1-.34-.147 2.561 2.561 0 0 1-.443-.245 3.126 3.126 0 0 1-.313-.263 3.682 3.682 0 0 1-.324-.371 2.705 2.705 0 0 1-.316-.525c-.091-.2-.161-.39-.207-.573a3.118 3.118 0 0 1-.092-.552l-.023-.28.013.002.013.004.012.007.013.006.013.007.013.007.196.094c.13.061.292.115.484.16.195.042.311.068.348.072l.057.007h.113l-.002-.004-.004-.003-.004-.003-.002-.004-.003-.004-.004-.002-.002-.003-.003-.004-.014-.007-.011-.007-.003-.002-.004-.004-.003-.003-.003-.004-.013-.007-.012-.006-.003-.003a1.713 1.713 0 0 1-.326-.303 7.288 7.288 0 0 1-.228-.28 2.146 2.146 0 0 1-.2-.313 3.576 3.576 0 0 1-.335-.938 3.474 3.474 0 0 1-.045-.947c.013-.12.038-.255.076-.405.039-.15.093-.31.165-.48l.107-.252.006-.022.006-.019.004-.002.003-.006.002-.004h.008l.002.004.003.006.002.002.004.003.003.004.004.004.003.003.007.012.005.015.004.002.002.003.17.2c.115.133.249.282.406.446.155.164.241.25.258.256a.175.175 0 0 1 .062.06c.026.034.11.112.254.237a8.836 8.836 0 0 0 1.333.92c.28.158.583.303.907.432.324.13.552.214.682.253.13.04.354.091.67.153.315.063.553.102.713.12.16.018.269.028.327.03l.09.003-.003-.019-.004-.02-.025-.167a3.357 3.357 0 0 1-.026-.467A3.094 3.094 0 0 1 8 3.964c.059-.173.117-.311.173-.417.057-.104.132-.222.224-.355a2.853 2.853 0 0 1 .866-.793c.19-.11.364-.195.523-.253.16-.057.295-.095.404-.112.11-.02.165-.029.165-.031"/></svg><svg viewBox="0 0 24 28" id="personal-data"><path fill-rule="evenodd" d="M22.91 25.636c0 .328-.22.546-.546.546H1.636c-.327 0-.545-.218-.545-.546v-3.272c0-4.2 3.109-7.691 7.309-8.128l1.582-.163-1.364-.818C6.655 12 5.455 9.927 5.455 7.636c0-3.6 2.945-6.545 6.545-6.545s6.545 2.945 6.545 6.545c0 2.291-1.2 4.364-3.163 5.564l-1.364.818 1.582.164c4.2.49 7.31 3.982 7.31 8.182v3.272zm-5.892-12.272a7.572 7.572 0 0 0 2.618-5.728C19.636 3.436 16.2 0 12 0S4.364 3.436 4.364 7.636a7.57 7.57 0 0 0 2.618 5.728C2.945 14.4 0 18.054 0 22.364v3.272c0 .928.71 1.637 1.636 1.637h20.728c.927 0 1.636-.71 1.636-1.637v-3.272c0-4.31-2.945-7.964-6.982-9z"/></svg><svg viewBox="0 0 15 15" id="plus"><path d="M7.5 2.5A.5.5 0 0 0 7 3v4H3a.5.5 0 0 0 0 1h4v4a.5.5 0 0 0 1 0V8h4a.5.5 0 0 0 0-1H8V3a.5.5 0 0 0-.5-.5m0-1.5C11.096 1 14 3.904 14 7.5S11.096 14 7.5 14A6.492 6.492 0 0 1 1 7.5C1 3.904 3.904 1 7.5 1m0-1C3.364 0 0 3.364 0 7.5S3.364 15 7.5 15 15 11.636 15 7.5 11.636 0 7.5 0"/></svg><svg viewBox="0 0 10 1" id="qty-update-minus"><path fill="#656A6E" fill-rule="evenodd" d="M0 0h10v1H0z"/></svg><svg viewBox="0 0 10 10" id="qty-update-plus"><path fill="#656A6E" fill-rule="evenodd" d="M4.444 4.444H0v1.112h4.444V10h1.112V5.556H10V4.444H5.556V0H4.444v4.444z"/></svg><svg viewBox="0 0 16 16" id="radio-dot"><defs><rect id="bka" width="16" height="16" y="1" rx="8"/></defs><g fill="none" fill-rule="evenodd" transform="translate(0 -1)"><use fill="#F1F4F6" xlink:href="#bka"/><rect width="15" height="15" x=".5" y="1.5" stroke="#D0D4D7" rx="7.5"/></g></svg><svg viewBox="0 0 8 8" id="radio-dot-only"><rect width="8" height="8" x="4" y="5" fill="#656A6E" fill-rule="evenodd" rx="4" transform="translate(-4 -5)"/></svg><svg viewBox="0 0 28 28" id="refer-a-friend"><path fill-rule="evenodd" d="M14 26.542C7.085 26.542 1.458 20.915 1.458 14S7.085 1.458 14 1.458 26.542 7.085 26.542 14 20.915 26.542 14 26.542M14 0C6.28 0 0 6.28 0 14s6.28 14 14 14 14-6.28 14-14S21.72 0 14 0m7.298 13.27h-6.569V6.703a.73.73 0 1 0-1.458 0v6.569H6.702a.73.73 0 1 0 0 1.458h6.569v6.569a.73.73 0 1 0 1.458 0V14.73h6.569a.73.73 0 1 0 0-1.458"/></svg><svg viewBox="0 0 9 9" id="refer-friend-icon"><path fill="#FFF" fill-rule="evenodd" d="M2.373 4.146H4.2V2.318a.3.3 0 0 1 .6 0v1.828h1.827a.3.3 0 0 1 0 .6H4.8v1.827a.3.3 0 0 1-.6 0V4.746H2.373a.3.3 0 0 1 0-.6M4.5 9C6.981 9 9 6.981 9 4.5S6.981 0 4.5 0A4.505 4.505 0 0 0 0 4.5C0 6.981 2.019 9 4.5 9"/></svg><svg viewBox="0 0 9 9" id="refer-friend-icon-desktop"><path fill="#2E3133" fill-rule="evenodd" d="M2.373 4.146H4.2V2.318a.3.3 0 0 1 .6 0v1.828h1.827a.3.3 0 0 1 0 .6H4.8v1.827a.3.3 0 0 1-.6 0V4.746H2.373a.3.3 0 0 1 0-.6M4.5 9C6.981 9 9 6.981 9 4.5S6.981 0 4.5 0A4.505 4.505 0 0 0 0 4.5C0 6.981 2.019 9 4.5 9"/></svg><svg viewBox="0 0 17 17" id="remove-refinement"><title>Page 1</title><g fill="#2E3133" fill-rule="evenodd"><path d="M11.401 12.001a.598.598 0 0 1-.424-.175l-5.97-5.97a.6.6 0 1 1 .849-.848l5.97 5.969a.6.6 0 0 1-.425 1.024"/><path d="M5.432 12.001a.598.598 0 0 1-.424-1.024l5.97-5.97a.6.6 0 1 1 .848.85l-5.97 5.968a.598.598 0 0 1-.424.176"/><path d="M8.417 1.2C4.437 1.2 1.2 4.437 1.2 8.417c0 3.979 3.237 7.216 7.217 7.216 3.979 0 7.216-3.237 7.216-7.216 0-3.98-3.237-7.217-7.216-7.217m0 15.633C3.776 16.833 0 13.058 0 8.417S3.776 0 8.417 0c4.64 0 8.416 3.776 8.416 8.417 0 4.64-3.775 8.416-8.416 8.416"/></g></svg><svg viewBox="0 0 6 12" id="right-arrow"><path d="M6 6l-6 6V0z"/></svg><svg viewBox="0 0 16 16" id="search-default"><path d="M2.878 10.394a5.326 5.326 0 0 1 0-7.52 5.315 5.315 0 0 1 3.765-1.571c1.374 0 2.729.537 3.765 1.572a5.326 5.326 0 0 1 0 7.52 5.307 5.307 0 0 1-7.53 0zm8.924.458c2.131-2.586 1.992-6.485-.438-8.912-2.59-2.587-6.832-2.587-9.422 0-2.59 2.586-2.59 6.823 0 9.41a6.605 6.605 0 0 0 4.701 1.929 6.72 6.72 0 0 0 4.223-1.492l4.024 4.018c.139.14.298.2.458.2.159 0 .338-.06.458-.2.259-.258.259-.656 0-.935l-4.004-4.018z"/></svg><svg viewBox="0 0 15 12" id="share-link"><path fill="#857650" fill-rule="evenodd" d="M7.442 2.078a.476.476 0 0 0-.155.656.477.477 0 0 0 .658.145l2.633-1.52c1.005-.58 2.254-.256 2.825.733.571.99.227 2.233-.778 2.814l-2.91 1.68c-1.005.58-2.253.256-2.825-.734a.476.476 0 0 0-.649-.178.476.476 0 0 0-.182.658c.825 1.429 2.678 1.91 4.129 1.072l2.91-1.68c1.45-.838 1.961-2.683 1.136-4.112C13.41.184 11.556-.297 10.105.541L7.473 2.06a.433.433 0 0 0-.03.017zM1.514 5.501C.064 6.339-.446 8.184.378 9.612c.825 1.429 2.678 1.91 4.129 1.072l2.633-1.52a.477.477 0 0 0 .188-.647.476.476 0 0 0-.66-.171l-2.634 1.52c-1.005.58-2.253.256-2.825-.734-.57-.99-.227-2.233.778-2.813l2.91-1.68c1.005-.58 2.254-.256 2.825.733a.476.476 0 0 0 .65.179.477.477 0 0 0 .188-.647l-.007-.012c-.825-1.428-2.677-1.91-4.129-1.071L1.514 5.5z"/></svg><svg viewBox="0 0 10 11" id="signup-icon"><path fill="#FFF" fill-rule="evenodd" d="M10 9.167v1.375a.469.469 0 0 1-.476.458H.476A.469.469 0 0 1 0 10.542V9.167c0-1.88 1.476-3.438 3.405-3.644-.905-.527-1.5-1.467-1.5-2.544C1.905 1.33 3.285 0 5 0c1.714 0 3.095 1.33 3.095 2.98 0 1.076-.595 2.016-1.5 2.543C8.524 5.729 10 7.288 10 9.167"/></svg><svg viewBox="0 0 34 34" id="snapchat"><path d="M32.994 17c0-8.833-7.16-15.994-15.994-15.994C8.167 1.006 1.006 8.166 1.006 17c0 8.833 7.16 15.994 15.994 15.994 8.833 0 15.994-7.16 15.994-15.994zM34 17c0 9.389-7.611 17-17 17S0 26.389 0 17 7.611 0 17 0s17 7.611 17 17z"/><path d="M17.135 10H17.1l-.24.003c-.312 0-.934.046-1.601.36-.382.18-.726.421-1.021.72-.353.356-.64.795-.854 1.304-.312.746-.238 2.003-.178 3.013v.002l.019.33a.52.52 0 0 1-.23.047c-.176 0-.386-.06-.624-.178a.53.53 0 0 0-.237-.052.804.804 0 0 0-.42.125.614.614 0 0 0-.295.403c-.02.106-.018.314.199.524.12.116.295.224.521.319.06.025.13.048.205.074.26.087.652.22.754.476.052.13.03.3-.066.507l-.008.017c-.023.06-.246.597-.704 1.163-.26.323-.546.592-.85.801a3.02 3.02 0 0 1-1.195.496.345.345 0 0 0-.274.364.484.484 0 0 0 .033.152c.068.167.223.308.475.433.308.152.768.28 1.369.38.03.062.062.216.083.321.023.113.047.228.08.35.037.133.132.292.376.292.093 0 .2-.022.322-.047.18-.038.427-.09.735-.09.17 0 .347.017.525.048.343.06.639.283.981.54.5.377 1.068.803 1.934.803.024 0 .047 0 .07-.003.03.002.065.003.102.003.867 0 1.433-.426 1.934-.803.343-.257.638-.48.981-.54.178-.031.355-.047.525-.047.294 0 .527.04.735.083.135.028.24.042.322.042h.016c.178 0 .31-.104.36-.287.033-.12.056-.232.08-.346.02-.1.053-.258.083-.32.6-.1 1.061-.228 1.37-.38.25-.124.406-.265.473-.431a.47.47 0 0 0 .034-.154.344.344 0 0 0-.274-.363c-1.871-.328-2.715-2.374-2.75-2.46a.257.257 0 0 0-.007-.017c-.096-.207-.118-.378-.066-.508.102-.256.494-.388.754-.476.075-.025.146-.049.205-.073.255-.108.438-.224.558-.356a.583.583 0 0 0 .17-.408c-.004-.239-.176-.451-.45-.555a.762.762 0 0 0-.304-.062.647.647 0 0 0-.283.061 1.523 1.523 0 0 1-.584.178.502.502 0 0 1-.193-.046c.005-.093.01-.189.017-.289l.002-.042c.06-1.01.135-2.269-.178-3.015a4.082 4.082 0 0 0-.857-1.308 3.566 3.566 0 0 0-1.024-.72 3.865 3.865 0 0 0-1.6-.358"/></svg><svg viewBox="0 0 16 16" id="star-empty"><path d="M3.484 15.352l1.163-5.11.065-.287-.219-.197-3.831-3.44 5.006-.42.308-.027.114-.287L8 .774l1.908 4.81.114.287.309.026 5.006.421-3.832 3.44-.218.197.065.286 1.163 5.11-4.246-2.717-.27-.173-.269.173-4.245 2.718z"/></svg><svg viewBox="0 0 16 16" id="star-full"><path d="M7.999 13.055l-4.426 2.833c-.468.3-.75.11-.624-.442l1.21-5.315L.21 6.584c-.41-.368-.3-.704.247-.75l5.17-.435L7.628.353c.205-.516.534-.523.742 0L10.372 5.4l5.17.435c.546.046.652.386.246.75l-3.95 3.547 1.21 5.315c.124.544-.155.742-.623.442l-4.426-2.833z"/></svg><svg viewBox="0 0 16 16" id="star-half"><path d="M3.484 15.352l1.163-5.11.065-.287-.219-.197-3.831-3.44 5.006-.42.308-.027.114-.287L8 .774l1.908 4.81.114.287.309.026 5.006.421-3.832 3.44-.218.197.065.286 1.163 5.11-4.246-2.717-.27-.173-.269.173-4.245 2.718z"/><path d="M7.999 13.055l-4.426 2.833c-.468.3-.75.11-.624-.442l1.21-5.315L.21 6.584c-.41-.368-.3-.704.247-.75l5.17-.435L7.628.353c.205-.516.37-.48.37.068v12.634z"/></svg><svg viewBox="0 0 13 18" id="store-locator"><path d="M6.5 0C10.072 0 13 2.902 13 6.446c0 3.424-5.914 11.031-6.148 11.38-.059.116-.235.174-.352.174-.117 0-.293-.058-.351-.175C5.915 17.535 0 9.871 0 6.445 0 2.903 2.928 0 6.5 0zm0 3.938a2.25 2.25 0 1 0-.001 4.499A2.25 2.25 0 0 0 6.5 3.938z"/></svg><svg viewBox="0 0 18 32" id="text-sign-up"><path fill="#857650" fill-rule="evenodd" d="M0 2.002C0 .896.893 0 1.995 0h14.01C17.107 0 18 .89 18 2.002v27.996A1.998 1.998 0 0 1 16.005 32H1.995A1.994 1.994 0 0 1 0 29.998V2.002zM9 31c1.09 0 2-.91 2-2 0-1.09-.91-2-2-2-1.09 0-2 .91-2 2 0 1.09.91 2 2 2zM1 4.003v20.994A.996.996 0 0 0 2 26h14a1 1 0 0 0 1-1.003V4.003A.996.996 0 0 0 16 3H2a1 1 0 0 0-1 1.003z"/></svg><svg viewBox="0 0 20 20" id="tooltip-default"><title>5A8677CB-D66B-41AB-8112-1BB392644088</title><g fill-rule="evenodd"><circle fill="#656A6E" cx="10" cy="10" r="10"/><path d="M7.93 5.915C8.54 5.305 9.38 5 10.45 5c1.01 0 1.805.23 2.385.69.58.46.87 1.105.87 1.935 0 .53-.12.97-.36 1.32-.24.35-.59.725-1.05 1.125-.4.36-.695.672-.885.938-.19.265-.285.582-.285.952H9.13c0-.4.057-.75.172-1.05.116-.3.255-.547.42-.742.166-.196.378-.418.638-.668.29-.27.505-.507.645-.713.14-.205.21-.447.21-.727 0-.61-.34-.915-1.02-.915-.75 0-1.13.445-1.14 1.335L7 8.465c.01-1.09.32-1.94.93-2.55zm3.075 7.53c.24.24.36.55.36.93s-.12.692-.36.938c-.24.245-.55.367-.93.367-.37 0-.675-.122-.915-.367-.24-.246-.36-.558-.36-.938 0-.38.117-.69.352-.93.236-.24.543-.36.923-.36s.69.12.93.36z" fill="#FFF"/></g></svg><svg viewBox="0 0 34 34" id="twitter"><path d="M32.994 17c0-8.833-7.16-15.994-15.994-15.994C8.167 1.006 1.006 8.166 1.006 17c0 8.833 7.16 15.994 15.994 15.994 8.833 0 15.994-7.16 15.994-15.994zM34 17c0 9.389-7.611 17-17 17S0 26.389 0 17 7.611 0 17 0s17 7.611 17 17z"/><path d="M19.355 11.003V11h.656l.24.051c.16.032.305.075.435.129a3.277 3.277 0 0 1 .71.404c.1.073.187.15.266.231.078.083.199.103.363.063.164-.039.34-.094.53-.165a7.11 7.11 0 0 0 .562-.24c.184-.089.296-.145.337-.17a.976.976 0 0 0 .064-.04l.002-.004.013-.005.013-.007.012-.008.013-.007.001-.004.004-.001.005-.003.003-.004.013-.004.011-.003-.003.02-.003.02-.005.02-.007.02-.006.013-.008.014-.005.02a.41.41 0 0 0-.013.053c-.005.022-.044.11-.12.266-.076.155-.17.313-.284.473-.114.16-.215.28-.306.362a2.51 2.51 0 0 0-.18.174.549.549 0 0 1-.107.092l-.063.045-.014.006-.011.007-.003.004-.004.003-.003.002-.003.004-.013.007-.012.007-.003.004-.004.001-.004.003-.002.005-.003.004-.004.003-.003.003-.003.004h.064l.354-.08a5.96 5.96 0 0 0 .674-.194l.341-.12.038-.013.018-.007.014-.007.012-.006.012-.007.013-.007.026-.004.025-.002v.026l-.006.003-.007.004-.002.004-.004.003-.004.003-.002.004-.003.004-.004.002-.004.003-.002.004-.003.004-.004.003-.006.013-.006.014-.004.002-.16.226a1.763 1.763 0 0 1-.171.227c-.008.003-.02.016-.036.04a3.785 3.785 0 0 1-.267.297 6.524 6.524 0 0 1-.481.462.644.644 0 0 0-.24.5c-.003.198-.013.42-.03.67a8.98 8.98 0 0 1-.31 1.784 9.048 9.048 0 0 1-1.204 2.696 7.608 7.608 0 0 1-.88 1.11c-.2.21-.31.325-.328.347-.02.019-.102.091-.248.219a8.85 8.85 0 0 1-.467.38c-.166.126-.319.23-.457.315a13.6 13.6 0 0 1-.502.289c-.196.109-.407.21-.634.305a9.99 9.99 0 0 1-.72.259c-.252.08-.496.142-.732.187a9.834 9.834 0 0 1-.802.112l-.448.047V23h-.82v-.007l-.107-.006-.177-.014a15.058 15.058 0 0 1-.525-.074 7.165 7.165 0 0 1-.712-.133 8.778 8.778 0 0 1-.77-.252 7.204 7.204 0 0 1-.875-.377 61.27 61.27 0 0 1-.455-.24 3.216 3.216 0 0 1-.204-.123l-.113-.072-.003-.004-.005-.003-.004-.003-.002-.004-.012-.007-.013-.006-.002-.004-.004-.003-.004-.003-.002-.004-.003-.004-.004-.002H10v-.027l.013.002.012.004.056.007a9.3 9.3 0 0 0 .311.02 5.51 5.51 0 0 0 1.116-.06 6.3 6.3 0 0 0 1.443-.428c.226-.105.385-.184.48-.235.094-.05.238-.144.432-.282l.29-.207.002-.004.004-.003.004-.003.003-.004.002-.004.004-.001.004-.003.002-.004.013-.004.013-.002.002-.015.004-.012.004-.003.003-.004-.102-.007c-.066-.004-.133-.01-.196-.013a2.705 2.705 0 0 1-.732-.22 3.467 3.467 0 0 1-.454-.253 2.39 2.39 0 0 1-.32-.244 5.864 5.864 0 0 1-.252-.271 2.667 2.667 0 0 1-.267-.364 3.165 3.165 0 0 1-.218-.43l-.104-.243-.007-.02-.006-.019-.004-.015-.002-.012.019.003.019.003.139.021c.093.012.238.018.435.012a2.822 2.822 0 0 0 .548-.052l.026-.007.032-.007.032-.006.002-.004.004-.003.004-.003.002-.004-.025-.006-.026-.007-.025-.007-.026-.007-.024-.006a1.663 1.663 0 0 1-.089-.027 4.733 4.733 0 0 1-.34-.147 2.561 2.561 0 0 1-.443-.245 3.126 3.126 0 0 1-.313-.263 3.682 3.682 0 0 1-.324-.371 2.705 2.705 0 0 1-.316-.525c-.091-.2-.161-.39-.207-.573a3.118 3.118 0 0 1-.092-.552l-.023-.28.013.002.013.004.012.007.013.006.013.007.013.007.196.094c.13.061.292.115.484.16.195.042.311.068.348.072l.057.007h.113l-.002-.004-.004-.003-.004-.003-.002-.004-.003-.004-.004-.002-.002-.003-.003-.004-.014-.007-.011-.007-.003-.002-.004-.004-.003-.003-.003-.004-.013-.007-.012-.006-.003-.003a1.713 1.713 0 0 1-.326-.303 7.288 7.288 0 0 1-.228-.28 2.146 2.146 0 0 1-.2-.313 3.576 3.576 0 0 1-.335-.938 3.474 3.474 0 0 1-.045-.947c.013-.12.038-.255.076-.405.039-.15.093-.31.165-.48l.107-.252.006-.022.006-.019.004-.002.003-.006.002-.004h.008l.002.004.003.006.002.002.004.003.003.004.004.004.003.003.007.012.005.015.004.002.002.003.17.2c.115.133.249.282.406.446.155.164.241.25.258.256a.175.175 0 0 1 .062.06c.026.034.11.112.254.237a8.836 8.836 0 0 0 1.333.92c.28.158.583.303.907.432.324.13.552.214.682.253.13.04.354.091.67.153.315.063.553.102.713.12.16.018.269.028.327.03l.09.003-.003-.019-.004-.02-.025-.167a3.357 3.357 0 0 1-.026-.467A3.094 3.094 0 0 1 17 12.964c.059-.173.117-.311.173-.417.057-.104.132-.222.224-.355a2.853 2.853 0 0 1 .866-.793c.19-.11.364-.195.523-.253.16-.057.295-.095.404-.112.11-.02.165-.029.165-.031"/></svg><svg viewBox="0 0 25 25" id="wishlist"><path fill-rule="evenodd" d="M20 14.412c-1.765 2.206-3.53 4.044-7.5 7.867-4.044-3.897-5.809-5.661-7.5-7.867-2.353-3.015-3.53-5.588-3.53-8.015 0-2.72 2.28-4.926 5.148-4.926 2.426 0 3.75 1.03 5.22 3.823l.662 1.25.662-1.25c1.47-2.794 2.794-3.823 5.22-3.823 2.868 0 5.148 2.206 5.148 4.926 0 2.427-1.177 5-3.53 8.015M18.383 0c-2.648 0-4.34 1.03-5.883 3.456C10.956 1.029 9.338 0 6.618 0 2.94 0 0 2.868 0 6.397c0 2.794 1.324 5.662 3.824 8.897 1.838 2.353 3.75 4.265 8.161 8.53l.515.514.515-.514c4.412-4.265 6.323-6.177 8.162-8.53C23.677 12.06 25 9.191 25 6.397 25 2.867 22.06 0 18.383 0"/></svg><svg viewBox="0 0 34 34" id="youtube"><path d="M32.994 17c0-8.834-7.16-15.994-15.994-15.994S1.006 8.166 1.006 17c0 8.833 7.16 15.994 15.994 15.994 8.833 0 15.994-7.16 15.994-15.994zM34 17c0 9.389-7.611 17-17 17S0 26.389 0 17C0 7.61 7.611 0 17 0s17 7.61 17 17z"/><path d="M24.838 13.887c-.11-.923-.89-1.65-1.872-1.744-3.975-.19-7.957-.19-11.931 0-.984.094-1.764.82-1.873 1.744a40.477 40.477 0 0 0 0 7.226c.113.922.89 1.646 1.873 1.744 3.974.19 7.956.19 11.93 0 .982-.098 1.76-.822 1.873-1.744a40.278 40.278 0 0 0 0-7.226zM20 17.455L15 20v-5l5 2.445h-.009l.009.01z"/></svg></defs></svg>